<?xml version="1.0" encoding="utf-8"?>
<!-- Generator: Adobe Illustrator 24.3.0, SVG Export Plug-In . SVG Version: 6.00 Build 0)  -->
<svg version="1.1" xmlns="http://www.w3.org/2000/svg" xmlns:xlink="http://www.w3.org/1999/xlink" x="0px" y="0px"
	 viewBox="0 0 500 500" style="enable-background:new 0 0 500 500;" xml:space="preserve">
<style type="text/css">
	.st0{fill:#FFFFFF;}
	.st1{fill:#F4F4F4;}
	.st2{fill:#A6CC41;}
	.st3{font-family:'Montserrat-BoldItalic';}
	.st4{font-size:24.1224px;}
	.st5{fill:#5EA1D8;}
	.st6{fill:#5E5E5E;}
	.st7{font-family:'Montserrat-SemiBold';}
	.st8{font-size:10.5271px;}
	.st9{fill:#5EA5C8;}
	.st10{font-family:'Montserrat-Bold';}
	.st11{font-size:23.802px;}
	.st12{font-size:10.3873px;}
</style>
<g id="BACKGROUND">
	<rect id="XMLID_2_" class="st0" width="500" height="500"/>
	<rect class="st1" width="250" height="250"/>
	<rect x="250" y="250" class="st1" width="250" height="250"/>
</g>
<g id="OBJECTS">
	<g>
		<g>
			<text transform="matrix(0.9567 0 0 1 66.8889 185.0258)"><tspan x="0" y="0" class="st2 st3 st4">Online</tspan><tspan x="68.27" y="0" class="st5 st3 st4">Shop</tspan></text>
			<text transform="matrix(0.9567 0 0 1 96.301 197.5565)" class="st6 st7 st8">Slogan Here</text>
		</g>
		<g>
			<path class="st2" d="M176.16,121.27c0,1.89-1.53,3.43-3.43,3.43c-1.89,0-3.43-1.53-3.43-3.43c0-1.89,1.53-3.43,3.43-3.43
				C174.62,117.84,176.16,119.38,176.16,121.27z"/>
			<g>
				<path class="st2" d="M147.55,77.06h-4.05v-8.35c0-8.27-6.73-15.01-15.01-15.01c-8.27,0-15.01,6.73-15.01,15.01v8.35h-4.05v-8.35
					c0-10.51,8.55-19.06,19.06-19.06c10.51,0,19.06,8.55,19.06,19.06V77.06z"/>
			</g>
			<path class="st2" d="M154.5,112.8c-0.19,0.21-0.4,0.41-0.6,0.61C154.1,113.21,154.3,113.01,154.5,112.8z"/>
			<path class="st2" d="M151.64,115.62c-0.48,0.45-0.97,0.88-1.46,1.32C150.67,116.51,151.16,116.07,151.64,115.62z"/>
			<path class="st2" d="M155.86,111.31c-0.17,0.19-0.34,0.38-0.52,0.57C155.51,111.68,155.69,111.5,155.86,111.31z"/>
			<path class="st2" d="M153.08,114.24c-0.23,0.23-0.47,0.45-0.7,0.67C152.61,114.69,152.85,114.47,153.08,114.24z"/>
			<path class="st2" d="M155.34,111.87c-0.28,0.31-0.56,0.63-0.85,0.93C154.78,112.5,155.06,112.18,155.34,111.87z"/>
			<path class="st2" d="M152.38,114.91c-0.25,0.24-0.49,0.48-0.74,0.7C151.89,115.39,152.13,115.15,152.38,114.91z"/>
			<path class="st2" d="M155.86,111.31c1.75-2,3.32-4.14,4.6-6.41c0.92-1.67,1.69-3.43,2.15-5.28l-0.02-0.31
				C161.58,103.68,158.97,107.74,155.86,111.31z"/>
			<path class="st2" d="M153.9,113.41c-0.27,0.28-0.54,0.56-0.82,0.83C153.36,113.97,153.63,113.69,153.9,113.41z"/>
			<path class="st2" d="M161.81,89.39l-0.55-6.98c-0.29-3.73-3.4-6.6-7.14-6.6h-50.82c-3.72,0-6.82,2.84-7.13,6.55
				c-1.32,15.57-4.52,53.51-4.52,53.51c0,0,6.09,1.27,21.16-1.13c10.11-1.61,19.76-5.81,28.47-11.15c0.11-0.07,0.21-0.13,0.32-0.2
				c8.11-5.01,16.05-11.5,19.81-20.52c0.36-0.86,0.67-1.74,0.92-2.63c0.01-0.05,0.03-0.1,0.04-0.15c0.07-0.26,0.14-0.52,0.2-0.77
				C162.58,99.31,161.81,89.39,161.81,89.39z M111.98,85.15c-1.41,0-2.55-1.14-2.55-2.55c0-1.41,1.14-2.55,2.55-2.55
				c1.41,0,2.55,1.14,2.55,2.55C114.53,84.01,113.39,85.15,111.98,85.15z M145.52,85.15c-1.41,0-2.55-1.14-2.55-2.55
				c0-1.41,1.14-2.55,2.55-2.55c1.41,0,2.55,1.14,2.55,2.55C148.07,84.01,146.93,85.15,145.52,85.15z"/>
			<path class="st9" d="M91.27,138.26l-0.27,2.25c-0.52,4.27,2.81,8.03,7.1,8.03h60.71c4.17,0,7.45-3.54,7.14-7.7l-1.97-26.16
				c0.05,0.61-3.13,5.45-5.89,8.15c-13.89,13.57-33.46,16.68-52.67,16.65C96.61,139.46,91.27,138.26,91.27,138.26z"/>
			<circle class="st9" cx="174.14" cy="100.82" r="6.32"/>
			<circle class="st2" cx="167.81" cy="111.31" r="1.74"/>
			<path class="st2" d="M89.88,129.55c0,0.96-0.78,1.74-1.74,1.74c-0.96,0-1.74-0.78-1.74-1.74c0-0.96,0.78-1.74,1.74-1.74
				C89.1,127.81,89.88,128.59,89.88,129.55z"/>
			<path class="st9" d="M86.4,136.21c0,2.72-2.2,4.92-4.92,4.92s-4.92-2.2-4.92-4.92c0-2.72,2.2-4.92,4.92-4.92
				S86.4,133.49,86.4,136.21z"/>
		</g>
	</g>
	<g>
		<g>
			<text transform="matrix(0.9567 0 0 1 317.6592 179.1235)"><tspan x="0" y="0" class="st2 st10 st11">Online</tspan><tspan x="67.36" y="0" class="st5 st10 st11">Shop</tspan></text>
			<g>
				<text transform="matrix(0.9567 0 0 1 346.6807 192.6416)" class="st6 st7 st12">Slogan Here</text>
			</g>
		</g>
		<g>
			<g>
				<path class="st2" d="M401.78,96.51h-5.19V85.82c0-10.6-8.62-19.22-19.22-19.22c-10.6,0-19.22,8.62-19.22,19.22v10.69h-5.19
					V85.82c0-13.46,10.95-24.42,24.42-24.42c13.46,0,24.41,10.95,24.41,24.42V96.51z"/>
			</g>
			<g>
				<path class="st9" d="M360.88,105.69c0,0,11.47-14.83,32.98-13.79c21.51,1.04,33.89-9.68,33.89-9.68s4.89,15.65-11.41,23.47
					C400.05,113.51,370.58,98.15,360.88,105.69z"/>
				<path class="st9" d="M374,122.23c0,0,0.04-16,27.41-12.49c20.17,2.59,25.48-7.81,25.48-7.81s-0.51,20.67-5.88,27.42
					C410.98,141.98,382.07,115.41,374,122.23z"/>
				<path class="st2" d="M322.96,89.49c0,0,25.1-8.63,52.01,15.23c22.17,19.66,31.59,29.13,46.04,24.64c0,0-5.57,15.28-31.44,14.61
					C360.19,143.21,346.81,90.45,322.96,89.49z"/>
				<path class="st2" d="M321.57,100.2c0,0,10.29-1.28,18.64,6.39c8.34,7.67,16.13,30.37,33.1,33.89c0,0-18.91,5.11-31.99-2.24
					C328.24,130.89,334.92,102.76,321.57,100.2z"/>
			</g>
		</g>
	</g>
	<g>
		<g>
			<text transform="matrix(0.9567 0 0 1 316.8887 436.2471)"><tspan x="0" y="0" class="st2 st3 st4">Online</tspan><tspan x="68.27" y="0" class="st5 st3 st4">Shop</tspan></text>
			<text transform="matrix(0.9567 0 0 1 346.3008 448.7773)" class="st6 st7 st8">Slogan Here</text>
		</g>
		<g>
			<g>
				<g>
					<g>
						<path class="st9" d="M355.43,385.22c-5.03,0-9.13-4.09-9.13-9.12c0-5.03,4.09-9.13,9.13-9.13c5.03,0,9.12,4.09,9.12,9.13
							C364.56,381.13,360.46,385.22,355.43,385.22z M355.43,372.76c-1.84,0-3.34,1.5-3.34,3.34c0,1.84,1.5,3.33,3.34,3.33
							c1.84,0,3.33-1.5,3.33-3.33C358.77,374.26,357.27,372.76,355.43,372.76z"/>
					</g>
					<g>
						<path class="st9" d="M395,385.22c-5.03,0-9.13-4.09-9.13-9.12c0-5.03,4.09-9.13,9.13-9.13c5.03,0,9.12,4.09,9.12,9.13
							C404.13,381.13,400.03,385.22,395,385.22z M395,372.76c-1.84,0-3.34,1.5-3.34,3.34c0,1.84,1.5,3.33,3.34,3.33
							c1.84,0,3.33-1.5,3.33-3.33C398.34,374.26,396.84,372.76,395,372.76z"/>
					</g>
				</g>
				<g>
					<g>
						<path class="st2" d="M421.04,320.73c-3.64-0.15-7.29-0.3-10.93-0.4c-3.69-0.11-7.39-0.13-11.09-0.17l-5.55,0.02l-5.56,0.1
							c-3.71,0.11-7.42,0.22-11.14,0.52c3.65,0.78,7.31,1.38,10.98,1.96l5.5,0.82l5.5,0.74c3.67,0.44,7.34,0.9,11.02,1.27
							c2.44,0.26,4.88,0.49,7.33,0.71c-0.64,1.85-1.37,3.67-2.2,5.43c-7.79,0.07-15.59,0.27-23.38,0.64
							c-9.88,0.5-19.76,1.19-29.64,2.53c9.88,1.34,19.76,2.03,29.64,2.53c6.63,0.32,13.26,0.51,19.89,0.6
							c-0.28,0.43-0.55,0.86-0.84,1.28c-1.92,2.73-4.1,5.26-6.47,7.58c-4.5,0.11-9,0.28-13.5,0.53c-8.35,0.5-16.71,1.19-25.06,2.53
							c8.35,1.34,16.71,2.03,25.06,2.53c2.1,0.12,4.2,0.21,6.3,0.29c-4.56,3.02-9.56,5.3-14.79,6.67l-2.15,0.46
							c-0.72,0.16-1.44,0.33-2.12,0.39c-1.38,0.22-2.75,0.3-4.09,0.32c-2.69-0.01-5.25-0.52-7.46-1.56
							c-2.21-1.04-4.07-2.6-5.49-4.59c-1.42-1.99-2.41-4.39-2.99-7l-0.23-0.97l-0.13-1.01c-0.09-0.69-0.2-1.3-0.26-2.14l-0.45-4.73
							l-0.92-9.45c-0.14-1.59-0.37-3.12-0.42-4.75c-0.13-1.78-0.37-3.61-0.75-5.41c-0.77-3.61-2.07-7.24-4.36-10.62
							c-1.14-1.68-2.59-3.28-4.35-4.64c-3.99-3.07-8.11-3.65-12.2-2.94c-6.11,1.07-9.39,7.82-6.48,13.3l0,0l4.46-2.37
							c2.13-1.13,4.11-1.46,5.71-1.07c1.61,0.36,3.24,1.54,4.57,3.45c1.33,1.9,2.31,4.37,2.89,6.99c0.29,1.32,0.49,2.66,0.6,4.06
							c0.06,1.56,0.32,3.19,0.47,4.78l1.11,9.6l0.56,4.8c0.07,0.75,0.23,1.71,0.37,2.61l0.22,1.35l0.33,1.36
							c0.88,3.6,2.4,7.21,4.81,10.35c2.38,3.14,5.65,5.71,9.27,7.26c3.63,1.57,7.51,2.15,11.2,2.05c1.84-0.07,3.67-0.24,5.43-0.59
							c0.91-0.13,1.73-0.36,2.57-0.58l2.51-0.65c6.62-2.01,12.81-5.24,18.26-9.38c5.4-4.21,10-9.36,13.63-15.08
							c3.57-5.77,6.16-12.1,7.63-18.67l0.03-0.13c0.05-0.24,0.07-0.49,0.06-0.75C423.89,321.97,422.57,320.8,421.04,320.73z"/>
					</g>
				</g>
			</g>
			<g>
				<path class="st2" d="M322.8,392.12c0,0,54.62-14.37,115.96-1.64c0,0-60.08-6.55-120.58,17.47
					C318.17,407.96,319.44,397.22,322.8,392.12z"/>
			</g>
		</g>
	</g>
	<g>
		<g>
			<text transform="matrix(0.9567 0 0 1 66.8892 435.0771)"><tspan x="0" y="0" class="st2 st10 st4">Online</tspan><tspan x="68.27" y="0" class="st5 st10 st4">Shop</tspan></text>
			<g>
				<text transform="matrix(0.9567 0 0 1 96.3013 448.7773)" class="st6 st7 st8">Slogan Here</text>
			</g>
		</g>
		<g>
			<g>
				<g>
					<path class="st2" d="M150.52,381.99H116.4c-7.7,0-14.48-4.54-16.47-11.04l-12.02-39.2l0,0c4.06-1.24,8.36,1.04,9.6,5.1
						l9.76,31.85c1,3.25,4.83,5.61,9.12,5.61h34.12c4.26,0,8.09-2.34,9.11-5.57l10.05-31.94c1.27-4.05,5.59-6.3,9.64-5.03l0,0
						l-12.35,39.27C164.93,377.49,158.17,381.99,150.52,381.99z"/>
				</g>
				<g>
					<g>
						<path class="st2" d="M111.8,325.83L111.8,325.83c-1.8-1.12-2.36-3.49-1.24-5.29l8.56-13.78c1.12-1.8,3.49-2.36,5.29-1.24l0,0
							c1.8,1.12,2.36,3.49,1.24,5.29l-8.56,13.78C115.97,326.4,113.6,326.95,111.8,325.83z"/>
					</g>
					<g>
						<path class="st2" d="M150.13,324.59l-8.56-13.78c-1.12-1.8-0.57-4.17,1.24-5.29l0,0c1.8-1.12,4.17-0.57,5.29,1.24l8.56,13.78
							c1.12,1.8,0.57,4.17-1.24,5.29l0,0C153.62,326.95,151.25,326.4,150.13,324.59z"/>
					</g>
				</g>
				<g>
					
						<rect x="94.65" y="342.14" transform="matrix(0.9999 -0.0122 0.0122 0.9999 -4.1919 1.6538)" class="st2" width="77.03" height="3.08"/>
				</g>
				<g>
					
						<rect x="101.2" y="359.7" transform="matrix(1 -5.853178e-03 5.853178e-03 1 -2.1121 0.7919)" class="st2" width="66.06" height="3.08"/>
				</g>
				<g>
					<g>
						<path class="st2" d="M121.31,378.33l-5.41-45.76c-0.1-0.84,0.5-1.61,1.35-1.71h0c0.84-0.1,1.61,0.5,1.71,1.35l5.41,45.76
							L121.31,378.33z"/>
					</g>
					<g>
						<path class="st2" d="M145.92,378.33l-3.05-0.36l5.41-45.76c0.1-0.84,0.86-1.45,1.71-1.35l0,0c0.84,0.1,1.45,0.86,1.35,1.71
							L145.92,378.33z"/>
					</g>
				</g>
			</g>
			<path class="st9" d="M153.61,374.24c-23.28,20.35-50.41,20.54-60.6,0.44c-4.38-8.65-4.91-19.65-2.24-31
				c-6.86,15.58-8.12,31.93-2.09,43.83c10.19,20.11,37.32,19.91,60.6-0.44c13.27-11.6,22.41-27.23,25.95-42.26
				C170.5,355.56,163.11,365.94,153.61,374.24z"/>
			<path class="st2" d="M83.17,347.48c0,0-15.83,25.19-8.77,43.87c7.06,18.68,32.81,16.46,43.39,12.19c0,0-20.39,2.18-31.62-13.03
				C74.93,375.29,83.17,347.48,83.17,347.48z"/>
		</g>
	</g>
	<text transform="matrix(1 0 0 1 276.3369 557.7539)" style="font-family:'MyriadPro-Regular'; font-size:12px;">Lorem ipsum</text>
</g>
</svg>
